<?xml version="1.0" encoding="UTF-8"?>
<svg id="Layer_1" xmlns="http://www.w3.org/2000/svg" version="1.1" viewBox="0 0 400 400">
  <!-- Generator: Adobe Illustrator 30.2.1, SVG Export Plug-In . SVG Version: 2.1.1 Build 1)  -->
  <path d="M306.3039,31.4305C213.3681-27.1451,90.0767.8081,31.4933,93.757,3.115,138.7831-6.0318,192.1653,5.7407,244.0704c11.7725,51.905,43.0525,96.1203,88.0791,124.4972,12.8949,8.1264,26.3705,14.5873,40.179,19.4409,85.7263,30.132,184.1766-1.7143,234.6335-81.7683,58.58-92.9484,30.6224-216.2272-62.3284-274.8097ZM250.3005,141.4338c-7.9087-5.8922-46.4467,1.5985-46.8347,1.6737-21.4803,4.2187-53.9145,13.7428-86.4562,35.1589-3.3404,2.1988-6.5573,4.4189-9.6538,6.656-.901-1.8168-1.8161-3.607-2.7395-5.4096-1.8929-3.694-3.8506-7.5182-5.7564-11.782-7.1072-15.8997-10.547-37.3542,13.4177-49.2567,15.7459-7.8197,40.5701-7.8139,40.8099-7.8133,5.8969.0341,10.705-4.7185,10.7397-10.6168.035-5.895-4.7167-10.7012-10.6168-10.7397-1.2183-.0066-30.0975-.0576-50.4333,10.0428-34.9185,17.3421-34.991,51.1973-23.4145,77.1002,2.1363,4.7807,4.2241,8.859,6.2449,12.8001,1.6225,3.1695,3.1541,6.1617,4.5771,9.261-32.8324,28.5146-47.6708,57.7829-50.2047,76.6275-.0959.713-.1339,1.3682-.2086,2.0602-5.7278-11.9516-10.1994-24.608-13.2031-37.8505-10.5098-46.3418-2.3446-94.0023,22.9917-134.2014C94.6109,33.6644,182.4979,5.2347,259.0439,32.1399c12.3243,4.3319,24.3646,10.1051,35.8754,17.3582,16.8593,10.6262,31.2786,23.6664,43.187,38.3496l-118.4346,1.3412c-5.8976.0667-10.6242,4.9017-10.557,10.7979.0522,4.6135,3.0217,8.5106,7.1369,9.957,1.144.4021,2.3783.6149,3.661.5999l94.5312-1.0697c-3.0131,25.7466-4.8053,49.0268-6.3832,69.6413-2.8825,37.6537-5.372,70.173-14.0997,101.2481-3.5377,12.5987-9.8188,20.1718-18.6636,22.5044-8.2401,2.1757-16.9316-.9235-20.0196-3.9891-21.3082-21.1234-18.926-53.1846-13.176-78.87,2.9322-9.8697,5.6173-19.8358,8.0639-29.5999.6941-2.4689,1.2572-4.619,1.647-6.5096,2.2925-11.0957-7.8197-13.5131-7.9301-13.5314-.4183-.0949-10.2807-2.1719-13.0383,9.1867-.4414,1.8219-.8868,3.6281-1.3365,5.4107-.4709,1.6631-1.0135,3.5125-1.5911,5.4791-1.8436,6.2604-4.1279,14.0351-6.1467,22.7526-17.605,58.7752-37.0434,89.468-48.2423,88.7404-1.9674-.1262-2.6902-.7024-3.398-1.7976-5.5722-8.6223-1.5845-36.3199,9.4816-65.8625,18.2308-48.6639,49.2254-72.6419,64.4294-73.5242,5.8667-.3381,9.0761-4.1857,10.1189-7.6737,3.0844-6.9403-3.8589-11.6456-3.8589-11.6456ZM66.8656,300.895c-5.1734-3.1259-7.2582-11.4761-5.7197-22.9111,1.9674-14.6318,13.8075-35.8459,36.1482-57.0863.6956,3.6142,1.3026,7.6332,1.8133,12.1867,1.051,9.3733-2.6312,54.8639-18.9061,66.4123-4.3052,3.0566-9.6714,3.6243-13.3357,1.3984ZM350.5647,294.8555c-52.307,82.9724-162.3822,107.9535-245.3574,55.6455-12.2626-7.7281-23.3663-16.787-33.1989-26.9404,7.0675.0052,14.285-2.1989,20.552-6.6452,27.7918-19.7223,28.6323-78.5349,27.7714-86.2118-1.1556-10.2975-2.8102-18.4208-4.7947-25.2641,4.1598-3.1551,8.5644-6.2747,13.2131-9.3337,23.7101-15.6033,47.3221-24.3864,66.831-29.3218-13.6131,14.5241-26.4755,34.6572-35.9699,60.0023-6.8761,18.3543-21.3609,63.3734-7.4176,84.9463,4.5119,6.98,11.4038,10.9626,19.951,11.5161,18.6767,1.2148,34.6557-17.4076,47.9233-44.4173,3.352,12.6296,9.609,24.7392,20.1708,35.2132,7.739,7.669,23.7135,13.9029,40.5077,9.4756,9.389-2.4793,26.2626-10.6274,33.7779-37.3819,9.2979-33.1106,11.8627-66.6078,14.8305-105.3937,1.6188-21.1453,3.4559-45.1016,6.6163-71.5144l16.8947-.1913c33.0013,55.6494,34.5006,127.4241-2.3011,185.8164Z"/>
  <path d="M176.3979,109.9105c1.1392.8157,2.4251,1.4746,3.8095,1.9611,1.8313.6437,3.8319.9853,5.8866.989,8.1499.0128,14.5447-5.1075,14.556-11.6582l.0005-.0014c.0099-6.5513-6.3717-11.6983-14.5178-11.7082-3.6061-.0058-7.053,1.0312-9.7057,2.9175-3.0759,2.1875-4.8437,5.3749-4.8489,8.7412-.0062,3.3691,1.7502,6.562,4.8199,8.7589Z"/>
</svg>