<?xml version="1.0" encoding="UTF-8"?>
<svg id="Layer_1" xmlns="http://www.w3.org/2000/svg" version="1.1" viewBox="0 0 50 50">
  <!-- Generator: Adobe Illustrator 30.2.1, SVG Export Plug-In . SVG Version: 2.1.1 Build 1)  -->
  <path d="M24.888916,6.888855C14.9477539,6.888855,6.888916,14.9477539,6.888916,24.888855c0,9.9411621,8.0588379,18,18,18,9.9411011,0,18-8.0588379,18-18,0-9.9411011-8.0588989-18-18-18ZM24.888916,40.9509888c-8.8708496,0-16.0621338-7.1912842-16.0621338-16.0621338s7.1912842-16.0620728,16.0621338-16.0620728,16.0620728,7.1912231,16.0620728,16.0620728-7.1912231,16.0621338-16.0620728,16.0621338Z"/>
  <path d="M30.8927178,30.868443c-.1710891.2404694-.3104772.5089717-.5149005.7119766-1.3729952,1.3634729-2.875127,1.3481481-4.1486792-.0949807-.4324186-.4899978-.654052-.476152-1.0874127-.0053524-1.544541,1.6779825-3.2083206,1.6742675-4.7371427-.0203583-.4716849-.5228381-.7800404-.5660971-1.1861636.006531-.1266908.1786334-.3266064.3055575-.4939612.4550758-.6012914.537194-1.1918088.6322097-1.9480056.1983499-2.3890437-1.3706848-4.4481766-3.0521313-5.5830462-5.6406214-.5966248-1.3608235-.590866-1.9929858,1.2737332-1.8210316,6.730647.6206986,13.4639804,1.2123213,20.196743,1.8099422,1.4315183.127066,2.8644229.2395067,4.2975681.3469261,1.1741092.0879971,1.4568922.5056682.9763832,1.5656241-.7005853,1.5454345-1.77274,2.8102406-3.1227555,3.8197894-.7204509.5387532-1.5435557.4816792-2.2797419.0086271-.5207009-.3345882-.9684682-.7826928-1.6426182-1.3404981Z"/>
  <path d="M34.1377212,25.2103184c-3.1101775-.2416727-6.2170681-.5253127-9.3259519-.7842931-.8552665-.0712468-.890345-.0908173-.8367297-1.062951.3218827-3.5561672.6461042-7.2003728.9931634-10.842403.0053154-.05578.1198789-.5052951.3748624-.5951788.2733731-.0963662.6129856.0851369.736429.2311547,1.0814991,1.403919,2.1238122,2.8380957,3.1752682,4.2650861,1.8642249,2.5300512,3.7326643,5.0570725,5.5785231,7.6004728,0,0,.3937866.6169615.1643023.9803116-.2043285.3235202-.8598667.2078006-.8598667.2078006Z"/>
  <path d="M19.8789596,23.9728707c-.7371715-.0598448-1.4751308-.1118935-2.2108295-.186304-.1419417-.0143559-.3773883-.100438-.3898706-.1812252-.0226342-.1464802.0445145-.3611031.1529369-.4654268,1.6308805-1.5692383,3.2718841-3.1280208,4.9213415-4.6777298.0566061-.0531834.3459379-.1852359.4875031-.1173713.1415695.0678667.1353715.3356525.1293149.4122056-.1290069,1.6305477-.2848996,3.2589664-.4141472,4.8894977-.0357983.4516015-.260984.5635506-.6685203.518973-.6681665-.0730817-1.3389864-.1219091-2.0086894-.180964.0003209-.0038857.0006418-.0077714.0009606-.0116551Z"/>
</svg>