<?xml version="1.0" encoding="UTF-8"?>
<svg id="Layer_1" xmlns="http://www.w3.org/2000/svg" version="1.1" viewBox="0 0 400 400">
  <!-- Generator: Adobe Illustrator 30.3.0, SVG Export Plug-In . SVG Version: 2.1.3 Build 182)  -->
  <defs>
    <style>
      .st0 {
        fill: #fff;
      }
    </style>
  </defs>
  <path d="M160.19099,241.68395c-2.48332,27.32652,8.20615,70.93719,31.2615,79.89545,12.67267,4.92034,21.5553,4.38671,26.41262-1.57987,10.79868-13.26516,6.0464-52.64039-18.24011-90.10799-7.61791-11.74825-15.35345-21.36412-22.85784-29.74257-9.62638,11.58235-15.10557,25.3748-16.57617,41.53498Z"/>
  <path d="M334.34101,52.44791c4.13293,50.44909-31.38787,86.81529-113.39597,118.3577-10.92892,4.2018-20.35779,9.12423-28.31606,14.7946,8.13894,9.0612,16.5972,19.55107,25.04705,32.58926,28.45891,43.90903,35.55579,92.43579,16.87872,115.3903-4.49598,5.52119-13.25673,12.82395-28.14376,12.82395-6.40361,0-13.93328-1.34878-22.74863-4.77325-35.69027-13.86176-47.88816-68.99801-44.89224-101.89615,1.96223-21.60155,9.68517-40.0685,23.07639-55.29171-.81939-.82775-1.63454-1.64924-2.44126-2.46438-9.47929-9.57172-18.4292-18.61195-26.06807-29.38327l-.84454-1.1849c-11.53401-16.20224-42.16946-59.24145,8.42039-98.28892,28.77406-22.20448,62.01041.85506,63.40961,1.84878,4.84895,3.43499,5.99179,10.14741,2.55896,14.99421-3.43714,4.85098-10.15584,5.9897-14.9963,2.55681-.8446-.58406-21.70239-14.81982-37.82899-2.36987-31.56405,24.36429-19.29889,47.33768-4.03792,68.78168l.86557,1.21639c6.61785,9.33436,14.58448,17.37871,23.80748,26.69204.99163,1.00006,1.99169,2.01057,3.00011,3.03375,9.97511-7.48551,21.82427-13.87861,35.53058-19.14977,97.33929-37.43722,108.8289-74.37568,95.29385-118.16787C220.47806-24.61082,102.05408-3.77049,39.15018,81.92465-26.05877,170.76011-6.90575,295.63782,81.92977,360.84683c88.83545,65.20895,213.71317,46.05593,278.92212-42.77959,61.01447-83.12118,48.16556-197.79294-26.51088-265.61933Z"/>
  <path class="st0" d="M213.2221,150.72515c-13.70631,5.27116-25.55547,11.66425-35.53058,19.14977-1.00842-1.02318-2.00848-2.03369-3.00011-3.03375-9.22299-9.31332-17.18962-17.35768-23.80748-26.69204l-.86557-1.21639c-15.26097-21.444-27.52613-44.41739,4.03792-68.78168,16.1266-12.44995,36.98439,1.78581,37.82899,2.36987,4.84046,3.43289,11.55916,2.29417,14.9963-2.55681,3.43283-4.8468,2.28999-11.55922-2.55896-14.99421-1.39921-.99372-34.63555-24.05326-63.40961-1.84878-50.58985,39.04747-19.9544,82.08669-8.42039,98.28892l.84454,1.1849c7.63888,10.77132,16.58878,19.81155,26.06807,29.38327.80672.81515,1.62187,1.63663,2.44126,2.46438-13.39122,15.22321-21.11415,33.69016-23.07639,55.29171-2.99593,32.89813,9.20196,88.03439,44.89224,101.89615,8.81536,3.42447,16.34502,4.77325,22.74863,4.77325,14.88703,0,23.64778-7.30276,28.14376-12.82395,18.67707-22.95451,11.58019-71.48128-16.87872-115.3903-8.44984-13.03819-16.90811-23.52805-25.04705-32.58926,7.95827-5.67037,17.38714-10.5928,28.31606-14.7946,82.0081-31.5424,117.5289-67.90861,113.39597-118.3577-5.13372-4.66281-10.55437-9.10825-16.26865-13.30279-3.14031-2.30512-6.33025-4.49291-9.55641-6.58784,13.53505,43.79219,2.04543,80.73065-95.29385,118.16787ZM199.62501,229.89154c24.2865,37.4676,29.03879,76.84283,18.24011,90.10799-4.85731,5.96658-13.73994,6.50022-26.41262,1.57987-23.05536-8.95827-33.74483-52.56893-31.2615-79.89545,1.4706-16.16017,6.94979-29.95263,16.57617-41.53498,7.50439,8.37845,15.23994,17.99432,22.85784,29.74257Z"/>
</svg>